<?xml version="1.0" encoding="UTF-8"?>
<svg id="Ebene_1" data-name="Ebene 1" xmlns="http://www.w3.org/2000/svg" viewBox="0 0 496.06 170.08">
  <defs>
    <style>
      .cls-1 {
        fill: #d5cabf;
      }

      .cls-1, .cls-2 {
        stroke-width: 0px;
      }

      .cls-2 {
        fill: #3c5644;
      }
    </style>
  </defs>
  <rect class="cls-1" x="30.64" y="29.08" width="3.26" height="111.92"/>
  <g>
    <polygon class="cls-2" points="76.53 133.64 75.23 138.55 73.96 133.64 70.58 123.68 67.29 123.68 73.53 140.74 76.81 140.74 83.05 123.68 79.92 123.68 76.53 133.64"/>
    <polygon class="cls-2" points="87.19 123.68 86.23 123.68 86.23 140.74 87.19 140.74 89.1 140.74 98.29 140.74 98.29 138.2 89.1 138.2 89.1 133.31 96.71 133.31 96.71 130.76 89.1 130.76 89.1 126.23 98.29 126.23 98.29 123.68 89.1 123.68 87.19 123.68"/>
    <path class="cls-2" d="M113.12,134.69c-.31-.3-.65-.53-1.04-.71-.19-.09-.45-.11-.67-.17.73-.07,1.43-.21,2.05-.47.87-.36,1.55-.91,2.06-1.64.51-.73.76-1.64.76-2.73,0-1.17-.26-2.15-.79-2.93-.53-.78-1.25-1.37-2.16-1.77-.92-.4-1.95-.6-3.1-.6h-7.69v17.06h2.88v-6.6h2.09c.81,0,1.45.11,1.92.33s.86.62,1.18,1.2l2.93,5.07h3.33l-2.9-4.91c-.25-.46-.53-.84-.84-1.13ZM105.41,131.78v-5.55h4.53c.61,0,1.17.09,1.68.25.51.17.91.46,1.21.87s.45.98.45,1.71c0,.68-.15,1.22-.45,1.62-.3.4-.7.68-1.21.85-.51.17-1.07.25-1.68.25h-4.53Z"/>
    <path class="cls-2" d="M132.02,132.67c-.48-.37-1.03-.68-1.65-.92-.62-.24-1.27-.44-1.95-.61l-1.91-.46c-.92-.22-1.65-.51-2.2-.85-.55-.35-.83-.89-.83-1.62,0-.44.12-.82.36-1.12.24-.31.57-.54.99-.71s.91-.25,1.45-.25c1.03,0,1.98.24,2.85.73s1.54,1.25,2.01,2.31l2.16-2.06c-.61-1.17-1.51-2.07-2.71-2.7s-2.57-.94-4.13-.94c-1.07,0-2.06.19-2.98.56s-1.65.93-2.2,1.67-.83,1.64-.83,2.71c0,.82.14,1.5.43,2.06.29.56.68,1.02,1.17,1.39s1.03.65,1.62.87c.59.21,1.17.38,1.77.52l1.63.36c.75.17,1.39.35,1.92.54.53.19.95.44,1.23.76.29.32.43.76.43,1.3s-.14.95-.42,1.26-.65.54-1.11.69c-.46.15-.98.22-1.55.22-.68,0-1.4-.11-2.15-.34-.76-.23-1.44-.6-2.05-1.11-.61-.51-1.07-1.18-1.37-2.01l-2.04,2.09c.44.95,1.05,1.72,1.82,2.32.77.59,1.65,1.03,2.63,1.3.98.27,2.02.41,3.1.41,1.15,0,2.19-.19,3.1-.57s1.64-.94,2.16-1.67c.52-.73.79-1.6.79-2.62,0-.82-.14-1.5-.42-2.06-.28-.56-.66-1.03-1.15-1.4Z"/>
    <rect class="cls-2" x="138.21" y="123.68" width="2.88" height="17.06"/>
    <path class="cls-2" d="M151.17,126.93c.76-.52,1.73-.78,2.9-.78.97,0,1.79.19,2.48.56s1.24.89,1.65,1.55c.42.66.72,1.42.9,2.27l2.49-1.83c-.39-1.12-.94-2.07-1.64-2.85-.7-.78-1.55-1.38-2.53-1.79-.99-.42-2.11-.62-3.38-.62-1.75,0-3.23.39-4.45,1.17-1.22.78-2.15,1.83-2.79,3.15-.64,1.31-.95,2.8-.95,4.44s.32,3.11.95,4.43c.64,1.33,1.57,2.38,2.79,3.16s2.71,1.17,4.45,1.17c1.27,0,2.4-.21,3.38-.62.98-.42,1.83-1.02,2.53-1.81s1.25-1.73,1.64-2.84l-2.49-1.83c-.19.85-.49,1.6-.9,2.27-.42.66-.97,1.18-1.65,1.55s-1.51.56-2.48.56c-1.17,0-2.14-.26-2.9-.78-.76-.52-1.33-1.23-1.7-2.14-.37-.91-.56-1.95-.56-3.12s.19-2.23.56-3.13c.37-.9.94-1.61,1.7-2.13Z"/>
    <polygon class="cls-2" points="176.97 130.76 168.78 130.76 168.78 123.68 165.9 123.68 165.9 140.74 168.78 140.74 168.78 133.31 176.97 133.31 176.97 140.74 179.85 140.74 179.85 123.68 176.97 123.68 176.97 130.76"/>
    <polygon class="cls-2" points="186.67 123.68 185.7 123.68 185.7 140.74 186.67 140.74 188.57 140.74 197.76 140.74 197.76 138.2 188.57 138.2 188.57 133.31 196.18 133.31 196.18 130.76 188.57 130.76 188.57 126.23 197.76 126.23 197.76 123.68 188.57 123.68 186.67 123.68"/>
    <path class="cls-2" d="M212.6,134.69c-.31-.3-.65-.53-1.04-.71-.19-.09-.45-.11-.67-.17.73-.07,1.43-.21,2.05-.47.87-.36,1.55-.91,2.06-1.64.51-.73.76-1.64.76-2.73,0-1.17-.26-2.15-.79-2.93-.53-.78-1.25-1.37-2.16-1.77-.92-.4-1.95-.6-3.1-.6h-7.69v17.06h2.88v-6.6h2.09c.81,0,1.45.11,1.92.33s.86.62,1.18,1.2l2.93,5.07h3.33l-2.9-4.91c-.25-.46-.53-.84-.84-1.13ZM204.89,131.78v-5.55h4.53c.61,0,1.17.09,1.68.25.51.17.91.46,1.21.87s.45.98.45,1.71c0,.68-.15,1.22-.45,1.62-.3.4-.7.68-1.21.85-.51.17-1.07.25-1.68.25h-4.53Z"/>
    <path class="cls-2" d="M230.61,133.49c0,1.68-.3,2.89-.89,3.64s-1.6,1.12-3.03,1.12-2.4-.37-3.02-1.12-.93-1.96-.93-3.64v-9.8h-2.88v9.78c0,2.58.56,4.48,1.69,5.71,1.13,1.22,2.83,1.83,5.1,1.83s4.06-.61,5.16-1.83,1.65-3.12,1.65-5.71v-9.78h-2.88v9.8Z"/>
    <polygon class="cls-2" points="250.21 133.05 250.38 136.29 248.7 133.61 241.81 123.68 239.14 123.68 239.14 140.74 242.01 140.74 242.01 131.37 241.81 128.24 243.36 130.66 250.43 140.74 253.08 140.74 253.08 123.68 250.21 123.68 250.21 133.05"/>
    <path class="cls-2" d="M265.73,134.35h4.94c-.2.73-.47,1.39-.82,1.96-.37.61-.88,1.09-1.53,1.43-.64.34-1.45.51-2.42.51-1.12,0-2.05-.25-2.79-.76s-1.29-1.22-1.67-2.14c-.37-.92-.56-1.97-.56-3.16s.19-2.23.56-3.13c.37-.9.94-1.61,1.7-2.13.76-.52,1.74-.78,2.93-.78.92,0,1.71.17,2.37.51.66.34,1.2.8,1.62,1.39.42.58.71,1.24.88,1.97l2.52-1.78c-.39-1.02-.94-1.89-1.64-2.61s-1.54-1.27-2.52-1.64-2.06-.56-3.24-.56c-1.76,0-3.26.38-4.49,1.13-1.23.76-2.16,1.8-2.79,3.12-.63,1.32-.94,2.83-.94,4.51,0,1.82.28,3.38.84,4.69s1.36,2.31,2.41,3.02c1.04.7,2.29,1.06,3.75,1.06,1.27,0,2.35-.29,3.23-.85.88-.57,1.56-1.35,2.05-2.34.48-.99.75-2.13.8-3.4l.76,6.39h1.86v-8.84h-7.81v2.44Z"/>
    <path class="cls-2" d="M289.66,132.67c-.48-.37-1.03-.68-1.65-.92-.62-.24-1.27-.44-1.95-.61l-1.91-.46c-.92-.22-1.65-.51-2.2-.85-.55-.35-.83-.89-.83-1.62,0-.44.12-.82.36-1.12.24-.31.57-.54.99-.71s.91-.25,1.45-.25c1.03,0,1.98.24,2.85.73s1.54,1.25,2.01,2.31l2.16-2.06c-.61-1.17-1.51-2.07-2.71-2.7s-2.57-.94-4.13-.94c-1.07,0-2.06.19-2.98.56s-1.65.93-2.2,1.67-.83,1.64-.83,2.71c0,.82.14,1.5.43,2.06.29.56.68,1.02,1.17,1.39s1.03.65,1.62.87c.59.21,1.17.38,1.77.52l1.63.36c.75.17,1.39.35,1.92.54.53.19.95.44,1.23.76.29.32.43.76.43,1.3s-.14.95-.42,1.26-.65.54-1.11.69c-.46.15-.98.22-1.55.22-.68,0-1.4-.11-2.15-.34-.76-.23-1.44-.6-2.05-1.11-.61-.51-1.07-1.18-1.37-2.01l-2.04,2.09c.44.95,1.05,1.72,1.82,2.32.77.59,1.65,1.03,2.63,1.3.98.27,2.02.41,3.1.41,1.15,0,2.19-.19,3.1-.57s1.64-.94,2.16-1.67c.52-.73.79-1.6.79-2.62,0-.82-.14-1.5-.42-2.06-.28-.56-.66-1.03-1.15-1.4Z"/>
    <polygon class="cls-2" points="306.42 131.17 304.74 135.52 303.06 131.17 299.39 123.68 295.86 123.68 295.86 140.74 298.73 140.74 298.73 132.72 298.33 127.09 300.34 132.01 303.29 137.87 306.19 137.87 309.14 132.01 311.1 127.09 310.74 132.72 310.74 140.74 313.62 140.74 313.62 123.68 310.08 123.68 306.42 131.17"/>
    <path class="cls-2" d="M323.47,123.68l-6.67,17.06h3.03l1.63-4.3h7.19l1.61,4.3h3.18l-6.67-17.06h-3.31ZM322.4,133.95l1.75-4.61.92-3.08.92,3.08,1.73,4.61h-5.31Z"/>
    <polygon class="cls-2" points="350.74 123.68 347.26 123.68 341.86 129.39 339.4 132.19 339.5 128.85 339.5 123.68 336.62 123.68 336.62 140.74 339.5 140.74 339.5 135.55 342.35 132.55 347.67 140.74 351.1 140.74 344.42 130.47 350.74 123.68"/>
    <polygon class="cls-2" points="357.67 123.68 354.79 123.68 354.79 140.74 355.76 140.74 357.67 140.74 366.39 140.74 366.39 138.2 357.67 138.2 357.67 123.68"/>
    <polygon class="cls-2" points="370.85 123.68 369.88 123.68 369.88 140.74 370.85 140.74 372.76 140.74 381.94 140.74 381.94 138.2 372.76 138.2 372.76 133.31 380.36 133.31 380.36 130.76 372.76 130.76 372.76 126.23 381.94 126.23 381.94 123.68 372.76 123.68 370.85 123.68"/>
    <path class="cls-2" d="M397.62,135.83c-.25-.46-.53-.84-.84-1.13-.31-.3-.65-.53-1.04-.71-.19-.09-.45-.11-.67-.17.73-.07,1.43-.21,2.05-.47.87-.36,1.55-.91,2.06-1.64.51-.73.76-1.64.76-2.73,0-1.17-.26-2.15-.79-2.93-.53-.78-1.25-1.37-2.16-1.77-.92-.4-1.95-.6-3.1-.6h-7.69v17.06h2.88v-6.6h2.09c.81,0,1.45.11,1.92.33s.86.62,1.18,1.2l2.93,5.07h3.33l-2.9-4.91ZM389.07,131.78v-5.55h4.53c.61,0,1.17.09,1.68.25.51.17.91.46,1.21.87s.45.98.45,1.71c0,.68-.15,1.22-.45,1.62-.3.4-.7.68-1.21.85-.51.17-1.07.25-1.68.25h-4.53Z"/>
  </g>
  <g>
    <path class="cls-2" d="M91.96,97.12c-7.71,0-13.75-1.55-18.14-4.64-4.39-3.09-6.59-7.7-6.59-13.82v-.22h3.24v.54c0,5.47,1.71,9.36,5.13,11.66,3.42,2.31,8.87,3.46,16.36,3.46,6.91,0,11.79-.92,14.63-2.75,2.84-1.84,4.27-4.63,4.27-8.37,0-3.53-1.12-6.05-3.35-7.56-2.23-1.51-5.9-2.66-11.02-3.46l-13.72-2.16c-4.61-.72-8.33-2.03-11.18-3.94-2.85-1.91-4.27-5.06-4.27-9.45,0-3.09.97-5.71,2.92-7.83,1.94-2.12,4.59-3.74,7.94-4.86,3.35-1.12,7.11-1.67,11.29-1.67,4.68,0,8.82.69,12.42,2.05,3.6,1.37,6.43,3.42,8.48,6.16,2.05,2.74,3.08,6.16,3.08,10.26v.22h-3.24v-.54c0-3.31-.65-6.08-1.94-8.32-1.3-2.23-3.46-3.92-6.48-5.08-3.02-1.15-7.13-1.73-12.31-1.73-6.48,0-11.25.88-14.31,2.65-3.06,1.77-4.59,4.63-4.59,8.59,0,3.39,1.01,5.82,3.02,7.29,2.02,1.48,5.44,2.61,10.26,3.4l13.82,2.16c4.9.72,8.86,2.07,11.88,4.05,3.02,1.98,4.54,5.09,4.54,9.34,0,3.31-.99,6.05-2.97,8.21-1.98,2.16-4.64,3.76-7.99,4.81s-7.07,1.57-11.18,1.57Z"/>
    <path class="cls-2" d="M150.82,97.12c-5.62,0-10.53-1.21-14.74-3.62-4.21-2.41-7.49-5.71-9.83-9.88-2.34-4.17-3.51-8.86-3.51-14.04s1.17-9.95,3.51-14.09c2.34-4.14,5.62-7.42,9.83-9.83,4.21-2.41,9.13-3.62,14.74-3.62s10.62,1.21,14.8,3.62c4.17,2.41,7.43,5.69,9.77,9.83,2.34,4.14,3.51,8.84,3.51,14.09s-1.17,9.87-3.51,14.04c-2.34,4.18-5.6,7.47-9.77,9.88-4.18,2.41-9.11,3.62-14.8,3.62ZM150.82,94.1c8.35,0,14.58-2.25,18.68-6.75,4.1-4.5,6.16-10.42,6.16-17.77s-2.05-13.27-6.16-17.77c-4.1-4.5-10.33-6.75-18.68-6.75s-14.49,2.25-18.63,6.75c-4.14,4.5-6.21,10.42-6.21,17.77s2.07,13.27,6.21,17.77c4.14,4.5,10.35,6.75,18.63,6.75Z"/>
    <path class="cls-2" d="M194.02,96.04h-3.24v-52.92h2.7v16.96l.54.54v35.42ZM239.6,96.04h-3.24v-30.89c0-6.19-1.58-11.09-4.75-14.69-3.17-3.6-8.1-5.4-14.8-5.4-7.2,0-12.8,2.31-16.79,6.91-4,4.61-5.99,10.95-5.99,19.01l-2.05.11.54-11.23h1.3c.72-3.02,2.07-5.9,4.05-8.64,1.98-2.74,4.57-4.95,7.78-6.64,3.2-1.69,6.97-2.54,11.29-2.54,5.04,0,9.23,1.12,12.58,3.35,3.35,2.23,5.87,5.18,7.56,8.86,1.69,3.67,2.54,7.67,2.54,11.99v29.81Z"/>
    <path class="cls-2" d="M257.63,96.04h-3.24v-52.92h2.7v16.96l.54.54v35.42ZM303.21,96.04h-3.24v-30.89c0-6.19-1.58-11.09-4.75-14.69-3.17-3.6-8.1-5.4-14.8-5.4-7.2,0-12.8,2.31-16.79,6.91-4,4.61-5.99,10.95-5.99,19.01l-2.05.11.54-11.23h1.3c.72-3.02,2.07-5.9,4.05-8.64,1.98-2.74,4.57-4.95,7.78-6.64,3.2-1.69,6.97-2.54,11.29-2.54,5.04,0,9.23,1.12,12.58,3.35,3.35,2.23,5.87,5.18,7.56,8.86,1.69,3.67,2.54,7.67,2.54,11.99v29.81Z"/>
    <path class="cls-2" d="M347.92,46.14h-36.4v-3.02h36.4v3.02ZM347.92,96.04h-10.58c-4.75,0-8.57-1.12-11.45-3.35-2.88-2.23-4.32-6.33-4.32-12.31V29.08h3.24v52.92c0,4.32,1.13,7.24,3.4,8.75,2.27,1.51,5.6,2.27,9.99,2.27h9.72v3.02Z"/>
    <path class="cls-2" d="M371.46,97.12c-4.9,0-8.96-1.15-12.2-3.46-3.24-2.3-4.86-5.54-4.86-9.72,0-3.02.79-5.44,2.38-7.24,1.58-1.8,3.67-3.17,6.26-4.1,2.59-.94,5.4-1.58,8.42-1.94l27.65-3.13v2.81l-26.35,2.92c-5.04.5-8.82,1.48-11.34,2.92-2.52,1.44-3.78,3.96-3.78,7.56,0,3.31,1.12,5.87,3.35,7.67,2.23,1.8,5.83,2.7,10.8,2.7,4.61,0,8.89-.83,12.85-2.48,3.96-1.66,7.18-4.14,9.67-7.45,2.48-3.31,3.73-7.49,3.73-12.53l1.51.86v8.21h-1.51c-1.8,5.26-5.08,9.31-9.83,12.15-4.75,2.84-10.33,4.27-16.74,4.27ZM401.06,96.04h-2.7v-15.44l-.32-.65v-17.5c0-6.05-1.42-10.46-4.27-13.23-2.84-2.77-7.58-4.16-14.2-4.16s-11.63,1.31-15.23,3.94c-3.6,2.63-5.4,6.71-5.4,12.26v.54h-3.24v-.65c0-3.38.92-6.52,2.75-9.4,1.84-2.88,4.54-5.22,8.1-7.02,3.56-1.8,7.94-2.7,13.12-2.7s9.23.92,12.37,2.75,5.42,4.25,6.86,7.24c1.44,2.99,2.16,6.25,2.16,9.77v34.24Z"/>
    <path class="cls-2" d="M438.32,92.26c-5.26,0-9.81-1.1-13.66-3.29-3.85-2.2-6.82-5.18-8.91-8.96-2.09-3.78-3.13-8.05-3.13-12.8s1.08-9.13,3.24-12.91c2.16-3.78,5.24-6.77,9.23-8.96,4-2.2,8.73-3.29,14.2-3.29s10.67,1.33,14.96,4c4.28,2.66,7,6.37,8.15,11.12h1.84v8.1h-2.05c0-4.1-.97-7.67-2.92-10.69-1.94-3.02-4.63-5.36-8.05-7.02-3.42-1.66-7.4-2.48-11.93-2.48-4.25,0-8.15.7-11.72,2.11-3.56,1.4-6.41,3.71-8.53,6.91-2.12,3.2-3.19,7.58-3.19,13.12s1.04,9.83,3.13,13.07c2.09,3.24,4.84,5.54,8.26,6.91,3.42,1.37,7.18,2.05,11.29,2.05,7.27,0,13.03-1.98,17.28-5.94,4.25-3.96,6.37-9.25,6.37-15.88h2.05v10.26h-2.38c-1.23,4.18-3.91,7.65-8.05,10.42-4.14,2.77-9.31,4.16-15.5,4.16ZM440.04,115.48c-4.25,0-8.19-.76-11.83-2.27-3.64-1.51-6.55-3.66-8.75-6.43-2.2-2.77-3.29-6.1-3.29-9.99h3.24c0,3.67.86,6.66,2.59,8.96,1.73,2.3,4.14,4,7.24,5.08,3.09,1.08,6.7,1.62,10.8,1.62,5.18,0,9.41-.65,12.69-1.94,3.28-1.3,5.67-3.4,7.18-6.32,1.51-2.92,2.27-6.82,2.27-11.72v-29.7l.54-1.4v-18.25h2.7v49.36c0,5.62-1.12,10.1-3.35,13.45-2.23,3.35-5.26,5.78-9.07,7.29-3.82,1.51-8.14,2.27-12.96,2.27Z"/>
  </g>
</svg>